# xmcd CD database file
#
# Track frame offsets:
#	150
#	27785
#	48735
#	68082
#	85549
#	106277
#	128322
#	146834
#	169264
#	187057
#	207778
#	226633
#
# Disc length: 3273 seconds
#
# Revision: 8
# Processed by: cddbd v1.4PL0 Copyright (c) Steve Scherf et al.
# Submitted via: CDex 1.51
#
DISCID=990cc70c
DTITLE=Marija Naumova and Niks Matvejevs - Ieskaties acîs
DYEAR=2000
DGENRE=Blues
TTITLE0=Pieskaries man
TTITLE1=Nç
TTITLE2=Pasaka
TTITLE3=Mâte Marija
TTITLE4=Kad mîla nâk
TTITLE5=Kâdâ jaukâ dienâ
TTITLE6=Saki, kâ tevi sauc
TTITLE7=Paisums un vçjð
TTITLE8=Rudens
TTITLE9=Ieskaties acîs
TTITLE10=Apburoða sirds
TTITLE11=Ziemassvçtku zvani
EXTD=YEAR: 2000
EXTT0=
EXTT1=
EXTT2=
EXTT3=
EXTT4=
EXTT5=
EXTT6=
EXTT7=
EXTT8=
EXTT9=
EXTT10=
EXTT11=
PLAYORDER=
